<?xml version="1.0" encoding="UTF-8" standalone="no"?>
<svg width="18px" height="18px" viewBox="0 0 20 16" version="1.1" xmlns="http://www.w3.org/2000/svg" xmlns:xlink="http://www.w3.org/1999/xlink">
    <!-- Generator: Sketch 39.1 (31720) - http://www.bohemiancoding.com/sketch -->
    <title>email-icon</title>
    <desc>Created with Sketch.</desc>
    <defs></defs>
    <g id="homepage:-features---section-106-map" stroke="none" stroke-width="1" fill="none" fill-rule="evenodd">
        <g id="map-case-listing" transform="translate(-923.000000, -595.000000)" fill="#013B5E">
            <g id="Side-bar" transform="translate(653.000000, 161.000000)">
                <g id="Social-media-icons" transform="translate(78.000000, 421.000000)">
                    <path d="M210,13 L194,13 C192.9,13 192,13.9 192,15 L192,27 C192,28.1 192.9,29 194,29 L210,29 C211.1,29 212,28.1 212,27 L212,15 C212,13.9 211.1,13 210,13 L210,13 Z M210,17 L202,22 L194,17 L194,15 L202,20 L210,15 L210,17 L210,17 Z" id="email-icon"></path>
                </g>
            </g>
        </g>
    </g>
</svg>
