<?xml version="1.0" encoding="UTF-8" standalone="no"?>
<svg width="18px" height="18px" viewBox="0 0 21 21" version="1.1" xmlns="http://www.w3.org/2000/svg" xmlns:xlink="http://www.w3.org/1999/xlink">
    <!-- Generator: Sketch 3.7.2 (28276) - http://www.bohemiancoding.com/sketch -->
    <title>facebook-icon</title>
    <desc>Created with Sketch.</desc>
    <defs></defs>
    <g id="color-trials" stroke="none" stroke-width="1" fill="none" fill-rule="evenodd">
        <g id="original-p22-minionpro" transform="translate(-912.000000, -8.000000)" fill="#013B5E">
            <g id="Header">
                <g id="Main-Titlebar">
                    <path d="M923.21678,29 L913.159039,29 C912.518732,29 912,28.4809463 912,27.8408887 L912,9.1590298 C912,8.51880925 912.518813,8 913.159039,8 L931.841043,8 C932.481105,8 933,8.51880925 933,9.1590298 L933,27.8408887 C933,28.4810278 932.481024,29 931.841043,29 L926.489696,29 L926.489696,20.8676427 L929.219353,20.8676427 L929.62808,17.6983187 L926.489696,17.6983187 L926.489696,15.6749056 C926.489696,14.7573132 926.744499,14.1320042 928.060314,14.1320042 L929.738574,14.1312709 L929.738574,11.2966021 C929.448325,11.2579787 928.452093,11.171687 927.293054,11.171687 C924.873365,11.171687 923.21678,12.6486677 923.21678,15.3610289 L923.21678,17.6983187 L920.480116,17.6983187 L920.480116,20.8676427 L923.21678,20.8676427 L923.21678,29 L923.21678,29 Z" id="facebook-icon"></path>
                </g>
            </g>
        </g>
    </g>
</svg>
