<?xml version="1.0" encoding="UTF-8" standalone="no"?>
<svg width="63px" height="67px" viewBox="0 0 63 67" version="1.1" xmlns="http://www.w3.org/2000/svg" xmlns:xlink="http://www.w3.org/1999/xlink">
    <!-- Generator: Sketch 3.8.3 (29802) - http://www.bohemiancoding.com/sketch -->
    <title>map-group-marker-multiple-zoom</title>
    <desc>Created with Sketch.</desc>
    <defs></defs>
    <g id="Symbols" stroke="none" stroke-width="1" fill="none" fill-rule="evenodd">
        <g id="map-group-marker-multiple-zoom">
            <g id="map-marker-multiple-zoom" transform="translate(2.000000, 4.000000)">
                <circle id="Oval-35" fill="#B11D00" cx="29" cy="29" r="29"></circle>
                <path d="M26.95,32 C30.2360943,32 32.9,34.6639057 32.9,37.95 C32.9,39.2845 32.475,40.5 31.7185,41.5115 L32.3985,42.2 L32.9,42.2 L38,47.3 L36.3,49 L31.2,43.9 L31.2,43.3985 L30.5115,42.7185 C29.5,43.475 28.2845,43.9 26.95,43.9 C23.6639057,43.9 21,41.2360943 21,37.95 C21,34.6639057 23.6639057,32 26.95,32 L26.95,32 Z M26.1,34.55 L26.1,37.1 L23.55,37.1 L23.55,38.8 L26.1,38.8 L26.1,41.35 L27.8,41.35 L27.8,38.8 L30.35,38.8 L30.35,37.1 L27.8,37.1 L27.8,34.55 L26.1,34.55 L26.1,34.55 Z" id="magnify-plus" fill="#FFFFFF"></path>
            </g>
        </g>
    </g>
</svg>