<?xml version="1.0" encoding="UTF-8" standalone="no"?>
<svg width="63px" height="67px" viewBox="0 0 63 67" version="1.1" xmlns="http://www.w3.org/2000/svg" xmlns:xlink="http://www.w3.org/1999/xlink">
    <!-- Generator: Sketch 3.8.3 (29802) - http://www.bohemiancoding.com/sketch -->
    <title>map-marker-multiple</title>
    <desc>Created with Sketch.</desc>
    <defs></defs>
    <g id="Symbols" stroke="none" stroke-width="1" fill="none" fill-rule="evenodd">
        <g id="map-marker-multiple">
            <g id="map-marker-multiple-expand">
                <g id="Mutlple-Marker-Shapes" fill="#E62A10">
                    <g id="Individual-Marker-Copy" transform="translate(0.963157, 0.000000)">
                        <path d="M29.8041548,0.131996331 C30.6260558,0.0447171781 31.4600804,0 32.3041548,0 C45.7269689,0 56.6083097,11.3083701 56.6083097,25.2579516 C56.6083097,39.2075331 33.1471939,66.4038086 33.1471939,66.4038086 C33.1471939,66.4038086 32.1532101,65.3288315 30.5604763,63.4966946 C36.5486072,56.1134566 51.6083097,36.4341742 51.6083097,25.2579516 C51.6083097,12.1855696 42.0524554,1.43266562 29.8041548,0.131996331 Z" id="Back-Marker"></path>
                        <path d="M25.1471939,66.4038086 C25.1471939,66.4038086 48.6083097,39.2075331 48.6083097,25.2579516 C48.6083097,11.3083701 37.7269689,0 24.3041548,0 C10.8813408,0 0,11.3083701 0,25.2579516 C0,39.2075331 25.1471939,66.4038086 25.1471939,66.4038086 Z" id="Front-Marker"></path>
                    </g>
                </g>
                <path d="M23.8333333,48 L23.8333333,46.3333333 L20.8416667,46.3333333 L24.5916667,42.5833333 L23.4166667,41.4083333 L19.6666667,45.1583333 L19.6666667,42.1666667 L18,42.1666667 L18,48 L23.8333333,48 L23.8333333,48 Z M27.5833333,39.5916667 L31.3333333,35.8416667 L31.3333333,38.8333333 L33,38.8333333 L33,33 L27.1666667,33 L27.1666667,34.6666667 L30.1583333,34.6666667 L26.4083333,38.4166667 L27.5833333,39.5916667 L27.5833333,39.5916667 Z" id="expand" fill="#FFFFFF"></path>
            </g>
        </g>
    </g>
</svg>