<?xml version="1.0" encoding="UTF-8" standalone="no"?>
<svg width="18px" height="18px" viewBox="0 0 20 18" version="1.1" xmlns="http://www.w3.org/2000/svg" xmlns:xlink="http://www.w3.org/1999/xlink">
    <!-- Generator: Sketch 39.1 (31720) - http://www.bohemiancoding.com/sketch -->
    <title>Shape</title>
    <desc>Created with Sketch.</desc>
    <defs></defs>
    <g id="homepage:-features---section-106-map" stroke="none" stroke-width="1" fill="none" fill-rule="evenodd">
        <g id="map-case-listing" transform="translate(-974.000000, -594.000000)" fill="#013B5E">
            <g id="Side-bar" transform="translate(653.000000, 161.000000)">
                <g id="Social-media-icons" transform="translate(78.000000, 421.000000)">
                    <path d="M260,17 L246,17 C244.3,17 243,18.3 243,20 L243,26 L247,26 L247,30 L259,30 L259,26 L263,26 L263,20 C263,18.3 261.7,17 260,17 L260,17 Z M257,28 L249,28 L249,23 L257,23 L257,28 L257,28 Z M260,21 C259.4,21 259,20.6 259,20 C259,19.4 259.4,19 260,19 C260.6,19 261,19.4 261,20 C261,20.6 260.6,21 260,21 L260,21 Z M259,12 L247,12 L247,16 L259,16 L259,12 L259,12 Z" id="Shape"></path>
                </g>
            </g>
        </g>
    </g>
</svg>
