<?xml version="1.0" encoding="UTF-8" standalone="no"?>
<svg width="18px" height="18px" viewBox="0 0 26 21" version="1.1" xmlns="http://www.w3.org/2000/svg" xmlns:xlink="http://www.w3.org/1999/xlink">
    <!-- Generator: Sketch 3.7.2 (28276) - http://www.bohemiancoding.com/sketch -->
    <title>twitter-icon</title>
    <desc>Created with Sketch.</desc>
    <defs></defs>
    <g id="color-trials" stroke="none" stroke-width="1" fill="none" fill-rule="evenodd">
        <g id="original-p22-minionpro" transform="translate(-951.000000, -8.000000)" fill="#013B5E">
            <g id="Header">
                <g id="Main-Titlebar">
                    <path d="M976.2,10.4860238 C975.274062,10.9076923 974.277126,11.1928494 973.231379,11.32026 C974.299313,10.6650054 975.118753,9.62600217 975.504807,8.38829902 C974.504913,8.99501625 973.4,9.43640303 972.219651,9.67302275 C971.278922,8.64312026 969.93439,8 968.446381,8 C965.593133,8 963.278288,10.3737811 963.278288,13.3011918 C963.278288,13.7167931 963.322662,14.12026 963.41141,14.508559 C959.114527,14.2871073 955.305758,12.1787649 952.754253,8.96771398 C952.309033,9.75341278 952.054622,10.6650054 952.054622,11.635753 C952.054622,13.4741062 952.967248,15.0970748 954.354675,16.048104 C953.508611,16.0223185 952.709878,15.7811484 952.011727,15.3867822 L952.011727,15.4520043 C952.011727,18.0214518 953.794083,20.1646804 956.160697,20.6500542 C955.727311,20.7744312 955.270259,20.8366197 954.798415,20.8366197 C954.46561,20.8366197 954.140201,20.8047671 953.825145,20.7425785 C954.48336,22.8478873 956.391442,24.3813651 958.654517,24.4223185 C956.885473,25.8450704 954.654939,26.6929577 952.233597,26.6929577 C951.816482,26.6929577 951.403803,26.6686891 951,26.6201517 C953.28822,28.1217768 956.006867,29 958.925198,29 C968.436027,29 973.635182,20.9230769 973.635182,13.9170098 C973.635182,13.6864572 973.630745,13.4559047 973.62187,13.2299025 C974.632118,12.4821235 975.509245,11.5492958 976.2,10.4860238" id="twitter-icon"></path>
                </g>
            </g>
        </g>
    </g>
</svg>
